<svg xmlns="http://www.w3.org/2000/svg" viewBox="0 0 112.51 30.23"><defs><style>.cls-1{fill:#4b6baf;}</style></defs><g id="Camada_2" data-name="Camada 2"><g id="Camada_1-2" data-name="Camada 1"><path class="cls-1" d="M0,10.65A1.48,1.48,0,0,0,1.48,9.17V3.84a3.85,3.85,0,0,1,7.69,0V14.49a1.48,1.48,0,0,0,3,0V9.17A3.85,3.85,0,0,1,16,5.32V7.69a1.48,1.48,0,0,0-1.48,1.48v5.32a3.85,3.85,0,1,1-7.69,0V3.84a1.48,1.48,0,0,0-3,0V9.17A3.84,3.84,0,0,1,0,13Z"/><path class="cls-1" d="M26.44,30.23a10.09,10.09,0,0,1-4.38-.86,6.75,6.75,0,0,1-2.73-2.28,6.31,6.31,0,0,1-1-3.06h2.94a4.4,4.4,0,0,0,.65,1.82,3.86,3.86,0,0,0,1.68,1.43,6.8,6.8,0,0,0,2.93.55,9.89,9.89,0,0,0,1.39-.12,6.84,6.84,0,0,0,1.6-.41,3.38,3.38,0,0,0,1.3-.9,2.26,2.26,0,0,0,.52-1.54,2.09,2.09,0,0,0-.9-1.81,6.88,6.88,0,0,0-2.33-1c-.95-.23-2-.47-3-.69a20.48,20.48,0,0,1-3-.89,5.91,5.91,0,0,1-2.33-1.54,3.9,3.9,0,0,1-.9-2.72,4.69,4.69,0,0,1,1.86-4,9,9,0,0,1,5.51-1.41,9.17,9.17,0,0,1,4,.77,5.94,5.94,0,0,1,2.37,2,5.64,5.64,0,0,1,1,2.59H30.65a3.16,3.16,0,0,0-1.18-2.07,5.36,5.36,0,0,0-3.4-.86q-4.49,0-4.48,2.7a2,2,0,0,0,.9,1.73,7.3,7.3,0,0,0,2.33,1c1,.24,2,.47,3,.68a17.76,17.76,0,0,1,3,.88,6,6,0,0,1,2.33,1.6,4.11,4.11,0,0,1,.9,2.8A4.77,4.77,0,0,1,32,28.78,9.64,9.64,0,0,1,26.44,30.23Z"/><path class="cls-1" d="M45.88,30.23a9.22,9.22,0,0,1-5-1.3,8.64,8.64,0,0,1-3.24-3.51,10.66,10.66,0,0,1-1.12-4.89,10.65,10.65,0,0,1,1.12-4.91,8.71,8.71,0,0,1,3.24-3.49,9.22,9.22,0,0,1,5-1.3,9.19,9.19,0,0,1,5,1.3,8.73,8.73,0,0,1,3.22,3.49,10.66,10.66,0,0,1,1.13,4.91,10.66,10.66,0,0,1-1.13,4.89,8.66,8.66,0,0,1-3.22,3.51A9.19,9.19,0,0,1,45.88,30.23Zm0-2.55a6.2,6.2,0,0,0,3.55-1,6.13,6.13,0,0,0,2.2-2.62,8.72,8.72,0,0,0,0-7.12,6.34,6.34,0,0,0-11.5,0,8.82,8.82,0,0,0,0,7.12,6.1,6.1,0,0,0,2.22,2.62A6.2,6.2,0,0,0,45.88,27.68Z"/><path class="cls-1" d="M58.93,29.93V11.13h2.82v2.93a9.37,9.37,0,0,1,2.48-2.29A6.83,6.83,0,0,1,68,10.83a7.71,7.71,0,0,1,3.67.92,7.19,7.19,0,0,1,2.78,2.75A8.75,8.75,0,0,1,75.51,19V29.93H72.69V19.06A5.75,5.75,0,0,0,71.22,15a5,5,0,0,0-3.79-1.56,5.8,5.8,0,0,0-2.86.71,5.49,5.49,0,0,0-2,2,5.79,5.79,0,0,0-.77,3V29.93Z"/><path class="cls-1" d="M88.14,30.23a8.63,8.63,0,0,1-8-4.81A10.66,10.66,0,0,1,79,20.53a10.66,10.66,0,0,1,1.13-4.91,8.66,8.66,0,0,1,8-4.79,8.36,8.36,0,0,1,4,.9,7.63,7.63,0,0,1,2.72,2.45v-3h2.82v18.8H94.87v-3a7.71,7.71,0,0,1-2.72,2.41A8.36,8.36,0,0,1,88.14,30.23Zm.38-2.55a6.2,6.2,0,0,0,3.55-1,6.13,6.13,0,0,0,2.2-2.62,8.82,8.82,0,0,0,0-7.12,6,6,0,0,0-5.75-3.57A6.26,6.26,0,0,0,82.65,17a8.42,8.42,0,0,0,0,7.12A6.28,6.28,0,0,0,85,26.7,6.41,6.41,0,0,0,88.52,27.68Z"/><path class="cls-1" d="M102.58,29.93V11.13h2.82v4.63a8.42,8.42,0,0,1,.58-1.3,7.14,7.14,0,0,1,1.26-1.64,7.37,7.37,0,0,1,2.09-1.41,7.06,7.06,0,0,1,3-.58h.19v2.82h-.34a5.85,5.85,0,0,0-3.63,1.15,7.39,7.39,0,0,0-2.33,3,9.45,9.45,0,0,0-.81,3.89v8.27Z"/></g></g></svg>